<?xml version="1.0" standalone="no"?>
<!DOCTYPE svg PUBLIC "-//W3C//DTD SVG 20010904//EN"
 "http://www.w3.org/TR/2001/REC-SVG-20010904/DTD/svg10.dtd">
<svg version="1.0" xmlns="http://www.w3.org/2000/svg"
 width="200.000000pt" height="200.000000pt" viewBox="0 0 200.000000 200.000000"
 preserveAspectRatio="xMidYMid meet">

<g transform="translate(0.000000,200.000000) scale(0.100000,-0.100000)"
fill="#000000" stroke="none">
<path d="M705 1751 l-240 -139 -3 -289 -2 -288 249 -144 250 -143 231 132
c127 73 229 134 227 137 -2 2 -98 -50 -213 -116 -115 -66 -210 -118 -212 -117
-1 2 29 49 68 104 54 76 78 102 98 106 35 7 207 28 252 31 19 2 38 3 43 4 4 1
7 131 7 290 l0 288 -244 142 c-135 77 -251 141 -258 141 -7 0 -121 -63 -253
-139z m429 -91 c122 -155 143 -186 129 -192 -43 -18 -663 -167 -676 -163 -7 3
-33 62 -56 131 -24 68 -46 123 -48 120 -3 -3 16 -64 41 -136 l46 -132 -46
-104 c-26 -57 -48 -104 -51 -104 -2 0 -3 118 -2 263 l1 262 226 130 c124 72
230 131 234 133 4 2 -71 -121 -168 -273 -96 -153 -173 -279 -171 -281 2 -3 85
123 183 280 167 265 180 283 196 268 9 -10 82 -100 162 -202z m88 73 l221
-127 -69 -63 c-38 -34 -72 -63 -76 -63 -4 0 -69 78 -144 173 -75 94 -144 180
-152 190 -8 9 -12 17 -8 17 3 0 106 -57 228 -127z m226 -525 l-3 -133 -69 185
c-38 102 -71 190 -73 196 -2 6 29 39 69 73 l73 62 3 -125 c1 -69 1 -185 0
-258z m-242 23 c-41 -117 -77 -215 -80 -218 -5 -5 -500 250 -519 267 -5 4 144
45 330 92 186 46 339 82 341 78 1 -3 -31 -101 -72 -219z m164 14 c40 -108 71
-198 69 -200 -5 -4 -293 -44 -297 -40 -4 3 147 435 153 435 1 0 35 -88 75
-195z m-613 -218 c95 -132 171 -242 169 -244 -3 -3 -133 71 -413 233 l-41 24
51 115 c28 63 54 115 57 114 3 0 82 -109 177 -242z m173 68 c102 -53 186 -98
188 -100 4 -4 -152 -224 -159 -225 -5 0 -329 448 -352 487 -5 8 24 -3 65 -25
40 -22 156 -84 258 -137z"/>
<path d="M1470 570 c0 -5 9 -10 20 -10 18 0 20 -7 20 -70 0 -38 -3 -70 -7 -70
-5 0 -17 7 -27 15 -36 27 -84 19 -123 -20 -34 -34 -35 -37 -31 -100 4 -72 21
-98 75 -116 28 -9 40 -8 73 9 31 15 40 16 40 6 0 -8 10 -14 23 -13 16 1 18 2
5 6 -16 4 -18 22 -18 189 l0 184 -25 0 c-14 0 -25 -4 -25 -10z m18 -156 c19
-13 22 -24 22 -89 0 -68 -2 -75 -26 -94 -41 -32 -100 -24 -131 18 -33 44 -22
137 20 166 28 19 87 19 115 -1z"/>
<path d="M118 540 c20 -8 22 -16 22 -79 0 -58 -3 -70 -17 -74 -17 -4 -17 -5 0
-6 15 -1 17 -12 17 -79 0 -72 -2 -80 -22 -90 -18 -8 3 -11 95 -11 l117 -1 0
36 c0 21 -4 33 -10 29 -6 -3 -10 -17 -10 -31 0 -23 -2 -24 -81 -24 -70 0 -80
2 -75 16 3 9 6 47 6 84 l0 69 53 4 52 3 -52 2 -53 2 0 75 0 75 75 0 75 0 0
-31 c0 -17 4 -28 10 -24 6 3 10 19 10 36 l0 29 -117 -1 c-81 0 -111 -3 -95 -9z"/>
<path d="M493 430 c-27 -16 -33 -17 -33 -5 0 10 -9 15 -27 14 -24 -2 -25 -2
-5 -6 21 -4 22 -9 22 -101 0 -99 -4 -115 -30 -125 -8 -3 5 -5 30 -5 25 0 37 2
28 5 -16 4 -18 17 -18 93 0 84 1 90 26 109 35 28 99 29 114 2 5 -11 10 -58 10
-106 0 -79 -2 -86 -22 -95 -18 -7 -12 -9 27 -8 28 0 41 3 30 5 -19 3 -20 10
-17 98 3 90 2 96 -22 120 -30 30 -69 32 -113 5z"/>
<path d="M1051 425 c-106 -90 -21 -273 103 -221 61 25 87 89 66 165 -20 76
-109 106 -169 56z m133 -26 c30 -36 35 -93 11 -139 -29 -55 -94 -67 -142 -26
-25 22 -28 31 -28 84 0 79 27 112 91 112 35 0 47 -5 68 -31z"/>
<path d="M1690 443 c-44 -16 -55 -83 -17 -107 12 -8 39 -18 60 -21 62 -12 87
-54 51 -89 -23 -24 -89 -21 -115 5 -11 11 -23 18 -26 15 -10 -10 18 -35 53
-46 42 -14 99 2 115 32 24 46 -11 85 -93 102 -30 7 -58 31 -58 51 0 45 86 61
127 23 28 -26 31 -6 3 22 -19 19 -66 25 -100 13z"/>
<path d="M740 414 c0 -14 4 -23 10 -19 6 3 10 13 10 21 0 11 15 14 65 14 36 0
65 -2 65 -5 0 -3 -33 -50 -73 -103 -40 -53 -77 -103 -81 -109 -5 -10 15 -13
88 -13 l96 0 -1 28 c0 26 -1 26 -9 5 -8 -21 -16 -23 -80 -23 -38 0 -70 2 -70
5 0 3 33 50 73 103 40 53 77 103 81 110 5 9 -14 12 -83 12 -91 0 -91 0 -91
-26z"/>
</g>
</svg>
