<?xml version="1.0" standalone="no"?>
<!DOCTYPE svg PUBLIC "-//W3C//DTD SVG 20010904//EN"
 "http://www.w3.org/TR/2001/REC-SVG-20010904/DTD/svg10.dtd">
<svg id="Layer_2" version="1.0" xmlns="http://www.w3.org/2000/svg"
 width="512.000000pt" height="512.000000pt" viewBox="0 0 512.000000 512.000000"
 preserveAspectRatio="xMidYMid meet">
<style type="text/css">
	.st0{stroke:#ffd700 ;stroke-width:50; stroke-miterlimit:20;
	}
</style>
<g transform="translate(0.000000,512.000000) scale(0.100000,-0.100000)"
fill="#0d0e3c" stroke="none">
<path class="st0" d="M0 2560 l0 -2560 2560 0 2560 0 0 2560 0 2560 -2560 0 -2560 0 0
-2560z m1567 1478 c71 -26 155 -104 190 -176 22 -46 28 -70 28 -132 0 -65 -4
-84 -33 -142 -38 -77 -87 -123 -178 -165 -79 -37 -209 -39 -294 -5 -75 30
-149 97 -185 168 -26 51 -30 70 -30 139 0 66 5 90 26 135 82 171 286 248 476
178z m1973 -844 c234 -48 417 -220 492 -464 l23 -75 3 -802 3 -803 -306 0
-305 0 0 628 c0 345 -5 659 -10 698 -19 144 -76 240 -174 292 -46 24 -61 27
-156 27 -97 0 -110 -2 -173 -32 -80 -38 -166 -116 -207 -188 l-30 -52 0 -687
0 -686 -300 0 -300 0 0 1050 0 1050 300 0 300 0 0 -85 c0 -76 8 -102 24 -76
12 19 152 105 224 138 190 86 385 108 592 67z m-1820 -1094 l0 -1050 -300 0
-300 0 0 1050 0 1050 300 0 300 0 0 -1050z"/>
</g>
</svg>
