<?xml version="1.0" standalone="no"?>
<!DOCTYPE svg PUBLIC "-//W3C//DTD SVG 20010904//EN"
 "http://www.w3.org/TR/2001/REC-SVG-20010904/DTD/svg10.dtd">
<svg id="Layer_1" version="1.0" xmlns="http://www.w3.org/2000/svg"
 width="750.000000pt" height="167.000000pt" viewBox="0 0 750.000000 167.000000"
 preserveAspectRatio="xMidYMid meet">
<style type="text/css">
	.st0{stroke:#ffd700 ;stroke-width:30; stroke-miterlimit:20;
	}
</style>
<g transform="translate(0.000000,167.000000) scale(0.100000,-0.100000)"
fill="#0d0e3c" stroke="none">
<path class="st0" d="M5114 1656 c-71 -31 -87 -85 -59 -201 32 -130 155 -976 155 -1062 1
-135 22 -170 129 -210 18 -7 28 -21 35 -54 15 -59 37 -58 56 3 24 75 86 128
149 128 35 0 56 -26 66 -82 9 -47 39 -77 63 -61 14 9 16 24 13 90 -3 78 -2 81
29 117 63 72 119 84 165 36 32 -34 69 -39 84 -12 5 10 14 59 20 110 9 87 14
100 75 211 120 215 133 264 115 424 -26 241 -136 435 -284 503 -52 24 -81 28
-373 50 -368 27 -396 28 -438 10z m609 -474 c-12 -90 -8 -128 14 -136 25 -10
52 13 78 65 44 86 113 90 136 7 20 -74 -14 -309 -60 -420 -60 -141 -192 -302
-276 -334 -53 -20 -103 -13 -133 19 -33 35 -72 128 -72 172 0 53 87 586 97
596 4 4 35 9 68 11 l60 3 23 45 c12 25 30 51 39 58 30 22 36 -1 26 -86z"/>
<path class="st0" d="M310 1650 c-135 -3 -253 -9 -263 -14 -20 -10 -47 -57 -47 -83 0 -10
32 -148 70 -308 69 -286 71 -290 105 -318 19 -16 35 -34 35 -39 0 -6 -14 -26
-30 -45 -37 -41 -37 -59 -4 -109 20 -29 44 -108 94 -311 37 -149 74 -283 84
-297 28 -44 96 -44 96 0 0 23 23 64 36 64 7 0 27 -18 44 -41 46 -57 66 -51
111 35 54 106 86 110 134 16 56 -110 92 -94 122 55 7 35 15 44 58 67 28 15 54
29 59 31 5 2 6 15 3 29 -11 44 -44 48 -264 33 -274 -18 -273 -19 -297 197 -21
180 -20 210 4 240 42 54 171 82 245 54 53 -21 95 -67 95 -104 0 -15 5 -44 11
-64 8 -30 15 -38 33 -38 23 0 46 33 46 68 0 55 21 90 75 126 45 30 55 41 55
65 0 37 -12 46 -86 65 -34 9 -77 23 -97 31 -50 21 -119 19 -202 -5 -81 -23
-111 -24 -143 -6 -43 24 -62 65 -62 139 0 65 1 69 42 113 83 90 136 97 205 29
26 -26 55 -45 67 -45 12 0 44 14 71 31 63 40 114 48 137 22 10 -10 30 -50 45
-88 34 -84 62 -106 108 -84 45 22 60 61 58 159 -2 152 -48 296 -102 324 -32
17 -197 18 -751 6z"/>
<path class="st0" d="M6905 1649 c-104 -5 -208 -14 -229 -20 -62 -17 -113 -57 -155 -121
-80 -119 -101 -229 -60 -311 12 -23 99 -121 194 -218 l172 -176 13 -69 c22
-123 60 -147 119 -74 52 65 107 49 146 -42 24 -59 20 -121 -11 -157 -51 -61
-217 -80 -295 -34 -26 16 -113 117 -193 226 -22 30 -32 36 -49 31 -40 -11 -49
-34 -43 -103 9 -102 35 -142 140 -220 122 -90 130 -103 136 -220 4 -75 9 -96
23 -105 26 -16 50 4 65 55 31 105 52 118 106 65 48 -48 68 -46 101 9 20 35 52
63 143 124 64 43 127 89 138 102 68 75 83 174 40 264 -32 69 -102 143 -292
306 -181 155 -244 232 -244 298 0 49 14 61 76 61 99 0 118 -15 144 -117 10
-40 32 -73 49 -73 16 0 29 26 36 75 13 95 56 123 94 62 11 -18 36 -74 55 -124
63 -165 76 -179 117 -121 29 40 34 129 21 354 -10 188 -25 229 -97 264 -47 23
-115 24 -460 9z"/>
<path class="st0" d="M2686 1394 c-24 -23 -20 -39 30 -152 41 -91 46 -110 41 -155 -6 -68
6 -99 36 -95 15 2 29 17 42 45 32 67 39 70 81 40 46 -32 65 -25 88 38 15 37
28 51 69 75 56 32 86 37 105 18 17 -17 15 -43 -7 -86 -10 -20 -35 -95 -55
-167 -38 -131 -75 -217 -141 -319 -69 -108 -76 -134 -111 -398 -6 -41 -4 -49
19 -72 36 -36 57 -33 111 16 40 34 54 41 87 40 35 -2 41 2 65 38 35 52 57 51
90 -5 14 -25 31 -45 38 -45 6 0 23 13 37 29 18 21 41 32 84 41 49 10 68 21
112 63 41 39 53 57 51 75 -5 40 -30 49 -77 28 -31 -15 -52 -17 -93 -11 -84 11
-109 9 -171 -14 -50 -19 -62 -20 -85 -9 -37 18 -38 46 -6 93 16 22 108 162
207 310 222 335 255 372 282 314 6 -12 15 -22 20 -22 19 0 48 76 53 142 3 54
1 70 -14 88 -19 23 -22 23 -364 28 -376 6 -447 10 -530 31 -68 18 -75 18 -94
-2z"/>
<path class="st0" d="M4209 1376 c-193 -41 -345 -188 -384 -373 -31 -147 -16 -236 73 -427
43 -93 59 -141 68 -205 7 -46 19 -90 27 -98 21 -21 46 -5 53 33 6 35 27 64 45
64 5 0 30 -19 55 -42 37 -34 59 -45 127 -62 71 -18 84 -25 102 -53 34 -55 104
-40 222 48 36 27 62 57 85 101 36 69 59 81 102 53 39 -26 46 -12 44 83 -2 80
0 93 32 162 61 133 54 281 -21 429 -65 130 -189 230 -339 275 -77 23 -211 28
-291 12z m219 -239 c6 -7 12 -42 14 -77 3 -56 6 -65 23 -68 13 -2 33 11 55 33
38 39 55 43 82 18 14 -12 18 -31 18 -78 0 -53 5 -68 31 -106 89 -128 84 -118
82 -188 -3 -117 -56 -197 -165 -247 -59 -27 -71 -29 -188 -29 -114 1 -131 3
-193 29 -83 35 -166 108 -197 173 -31 67 -30 164 4 262 50 145 101 201 181
201 35 0 47 -6 80 -40 40 -40 74 -51 93 -27 6 6 15 38 21 71 14 78 35 103 59
73z"/>
<path class="st0" d="M1363 1360 c-44 -27 -43 -64 3 -160 48 -100 57 -163 39 -252 -19 -91
-19 -132 2 -171 14 -26 19 -67 23 -214 3 -117 9 -186 16 -194 18 -17 46 -2 76
41 15 22 32 40 38 40 6 0 10 -34 10 -85 0 -94 14 -178 37 -213 11 -18 22 -22
46 -20 l32 3 -2 195 c-2 107 -8 253 -13 323 -13 151 -10 167 30 167 33 0 41
-12 184 -238 83 -131 118 -166 192 -188 56 -17 73 -37 74 -87 0 -29 7 -46 29
-68 16 -16 36 -29 44 -29 20 0 43 30 51 65 4 17 16 59 26 95 11 36 40 216 65
400 26 184 49 345 52 357 3 13 34 55 69 94 71 80 79 106 37 139 -25 19 -35 20
-193 16 -91 -3 -173 -8 -182 -11 -30 -12 -41 -57 -28 -116 6 -30 15 -164 20
-299 4 -135 11 -254 15 -265 9 -29 -16 -59 -43 -51 -34 11 -100 143 -128 258
-30 120 -27 114 -98 203 -59 74 -96 154 -96 209 0 21 -8 40 -21 52 -19 17 -40
19 -198 22 -162 2 -179 1 -208 -18z"/>
</g>
</svg>
